<svg width="22" height="22" viewBox="0 0 22 22" fill="none" xmlns="http://www.w3.org/2000/svg">
<path d="M7.32068 1L7.32068 5.06271" stroke="#A0A0A0" stroke-width="1.5" stroke-linecap="round"/>
<path d="M14.6682 1L14.6682 5.06271" stroke="#A0A0A0" stroke-width="1.5" stroke-linecap="round"/>
<path d="M1.5027 18.1316C1.67869 19.5689 2.83576 20.7063 4.281 20.796C6.43675 20.9296 8.59294 21 11 21C13.4071 21 15.5633 20.9296 17.719 20.796C19.1642 20.7063 20.3213 19.5689 20.4973 18.1316C20.7443 16.1141 21 14.0226 21 11.8791C21 9.73566 20.7443 7.6442 20.4973 5.62665C20.3213 4.18936 19.1642 3.05193 17.719 2.96231C15.5633 2.82862 13.4071 2.75824 11 2.75824C8.59294 2.75824 6.43675 2.82862 4.281 2.96231C2.83576 3.05193 1.67869 4.18936 1.5027 5.62665C1.25566 7.6442 1 9.73566 1 11.8791C1 14.0226 1.25566 16.1141 1.5027 18.1316Z" fill="white" stroke="#A0A0A0" stroke-width="1.5"/>
<path d="M5.2811 7.5622C5.12585 7.5622 5 7.43634 5 7.2811C5 7.12585 5.12585 7 5.2811 7" stroke="#A0A0A0" stroke-width="1.5"/>
<path d="M5.28116 7.5622C5.4364 7.5622 5.56226 7.43634 5.56226 7.2811C5.56226 7.12585 5.4364 7 5.28116 7" stroke="#A0A0A0" stroke-width="1.5"/>
<path d="M8.49997 7.5622C8.34472 7.5622 8.21887 7.43634 8.21887 7.2811C8.21887 7.12585 8.34472 7 8.49997 7" stroke="#A0A0A0" stroke-width="1.5"/>
<path d="M8.50003 7.5622C8.65528 7.5622 8.78113 7.43634 8.78113 7.2811C8.78113 7.12585 8.65528 7 8.50003 7" stroke="#A0A0A0" stroke-width="1.5"/>
<path d="M11.7188 7.5622C11.5636 7.5622 11.4377 7.43634 11.4377 7.2811C11.4377 7.12585 11.5636 7 11.7188 7" stroke="#A0A0A0" stroke-width="1.5"/>
<path d="M11.7189 7.5622C11.8741 7.5622 12 7.43634 12 7.2811C12 7.12585 11.8741 7 11.7189 7" stroke="#A0A0A0" stroke-width="1.5"/>
<path d="M15.2811 7.5622C15.1259 7.5622 15 7.43634 15 7.2811C15 7.12585 15.1259 7 15.2811 7" stroke="#A0A0A0" stroke-width="1.5"/>
<path d="M15.2812 7.5622C15.4364 7.5622 15.5623 7.43634 15.5623 7.2811C15.5623 7.12585 15.4364 7 15.2812 7" stroke="#A0A0A0" stroke-width="1.5"/>
<path d="M7.2811 11.5622C7.12585 11.5622 7 11.4363 7 11.2811C7 11.1259 7.12585 11 7.2811 11" stroke="#A0A0A0" stroke-width="1.5"/>
<path d="M7.28116 11.5622C7.4364 11.5622 7.56226 11.4363 7.56226 11.2811C7.56226 11.1259 7.4364 11 7.28116 11" stroke="#A0A0A0" stroke-width="1.5"/>
<path d="M10.2811 11.5622C10.1259 11.5622 10 11.4363 10 11.2811C10 11.1259 10.1259 11 10.2811 11" stroke="#A0A0A0" stroke-width="1.5"/>
<path d="M10.2812 11.5622C10.4364 11.5622 10.5623 11.4363 10.5623 11.2811C10.5623 11.1259 10.4364 11 10.2812 11" stroke="#A0A0A0" stroke-width="1.5"/>
<path d="M13.2811 11.5622C13.1259 11.5622 13 11.4363 13 11.2811C13 11.1259 13.1259 11 13.2811 11" stroke="#A0A0A0" stroke-width="1.5"/>
<path d="M13.2812 11.5622C13.4364 11.5622 13.5623 11.4363 13.5623 11.2811C13.5623 11.1259 13.4364 11 13.2812 11" stroke="#A0A0A0" stroke-width="1.5"/>
<path d="M16.2811 11.5622C16.1259 11.5622 16 11.4363 16 11.2811C16 11.1259 16.1259 11 16.2811 11" stroke="#A0A0A0" stroke-width="1.5"/>
<path d="M16.2812 11.5622C16.4364 11.5622 16.5623 11.4363 16.5623 11.2811C16.5623 11.1259 16.4364 11 16.2812 11" stroke="#A0A0A0" stroke-width="1.5"/>
</svg>
