<svg width="26" height="26" viewBox="0 0 26 26" fill="none" xmlns="http://www.w3.org/2000/svg">
<path d="M1.61566 22.8382C1.77638 23.7113 2.5229 24.3451 3.40795 24.4153C6.47471 24.6586 9.68949 25 13.0022 25C16.3378 25 19.5497 24.786 22.6502 24.4637C23.5098 24.3744 24.2115 23.7341 24.3636 22.8834C24.7467 20.7404 25.0043 18.5191 25.0043 16.2209C25.0043 13.9146 24.7708 11.6592 24.3734 9.52127C24.2186 8.68809 23.5277 8.06632 22.6851 7.97602C19.5614 7.64126 16.3527 7.44189 13.0022 7.44189C9.64872 7.44189 6.38137 7.6291 3.28924 7.97201C2.46125 8.06383 1.78165 8.67191 1.62497 9.49011C1.21467 11.6327 1 13.9047 1 16.2209C1 18.5036 1.22339 20.7071 1.61566 22.8382Z" fill="#D7E0FF" stroke="#00C1E5" stroke-width="1.5" stroke-linejoin="round"/>
<path d="M8.38586 24.8144V7.6012" stroke="#00C1E5" stroke-width="1.5" stroke-linecap="round" stroke-linejoin="round"/>
<path d="M17.6184 24.8595V7.6012" stroke="#00C1E5" stroke-width="1.5" stroke-linecap="round" stroke-linejoin="round"/>
<path d="M18.4839 7.57118V6.48175C18.4839 5.0279 17.9064 3.6336 16.8783 2.60557C15.8503 1.57754 14.456 1 13.0021 1C11.5483 1 10.154 1.57754 9.12595 2.60557C8.09793 3.6336 7.52039 5.0279 7.52039 6.48175V7.57118" stroke="#00C1E5" stroke-width="1.5" stroke-linecap="round" stroke-linejoin="round"/>
</svg>
