<svg width="21" height="17" viewBox="0 0 21 17" fill="none" xmlns="http://www.w3.org/2000/svg">
<path fill-rule="evenodd" clip-rule="evenodd" d="M1.50466 0.0713371C0.9146 0.253658 0.337775 0.793045 0.1195 1.36646C-0.00822116 1.70208 -0.00902913 1.75573 0.00737879 8.6191L0.0239732 15.5336L0.235784 15.9176C0.47575 16.3527 0.72305 16.5893 1.19161 16.8321L1.5156 17H10.4964H19.4773L19.8679 16.7918C20.3104 16.5559 20.5511 16.3128 20.7981 15.8521L20.9689 15.5336L20.9882 13.8569C20.9988 12.9347 20.9914 12.1172 20.9718 12.0403C20.9257 11.8601 20.6149 11.7002 20.4091 11.751C20.3228 11.7723 20.1967 11.8591 20.1289 11.9438C20.0134 12.0882 20.0056 12.1945 20.0056 13.6192C20.0056 15.4688 19.9579 15.6428 19.3705 15.9375C19.1472 16.0495 18.9176 16.053 12.6456 16.038L6.15183 16.0224L6.44954 15.2824C7.9191 11.63 10.6646 9.55893 14.6606 9.08871C16.0285 8.92777 18.2447 9.03079 19.9189 9.33317C20.614 9.45873 20.8149 9.43569 20.9341 9.21677C20.9784 9.13521 21 7.88737 21 5.39738C21 1.80675 20.9963 1.68931 20.8713 1.36103C20.701 0.913594 20.224 0.404818 19.7688 0.185043L19.4151 0.0143313L10.5897 0.00272251C3.45211 -0.00668681 1.71455 0.00644942 1.50466 0.0713371ZM19.4899 1.15591C19.6417 1.25471 19.7943 1.42634 19.8738 1.58764C20.003 1.85013 20.0056 1.91862 20.0056 5.09152V8.32765L19.2753 8.22299C17.0344 7.90198 14.8707 7.95825 13.0136 8.38601C9.32434 9.23566 6.62679 11.7192 5.32466 15.4651L5.12037 16.0528L3.48642 16.0529C2.0056 16.053 1.83089 16.0421 1.62188 15.9372C1.35811 15.8049 1.23107 15.6769 1.08806 15.3992C0.997012 15.2224 0.987317 14.5616 0.987317 8.52947C0.987317 1.88868 0.987938 1.85404 1.11696 1.5921C1.25264 1.31655 1.49758 1.10642 1.78229 1.02131C1.8749 0.993635 5.84027 0.975732 10.5942 0.981476L19.2378 0.991924L19.4899 1.15591ZM5.22994 3.00558C3.54658 3.38018 2.57975 5.11804 3.17578 6.69776C3.64161 7.93228 4.96617 8.70885 6.23996 8.49433C7.32985 8.31085 8.15633 7.61462 8.50954 6.58253C8.70221 6.01956 8.66374 5.17608 8.42166 4.65631C7.82979 3.3855 6.53419 2.71542 5.22994 3.00558ZM6.6253 4.11729C7.69051 4.6114 7.98094 6.03459 7.19554 6.91173C6.63649 7.53611 5.77209 7.69582 4.9929 7.31872C4.69936 7.17672 4.52521 7.04163 4.37108 6.8367C3.20941 5.29168 4.86126 3.29898 6.6253 4.11729Z" fill="white"/>
</svg>
