<svg width="23" height="23" viewBox="0 0 23 23" fill="none" xmlns="http://www.w3.org/2000/svg">
<path d="M5.29559 9.45283C7.61688 9.45283 9.49866 7.5606 9.49866 5.22642C9.49866 2.89223 7.61688 1 5.29559 1C2.97431 1 1.09253 2.89223 1.09253 5.22642C1.09253 7.5606 2.97431 9.45283 5.29559 9.45283Z" stroke="white" stroke-width="1.5" stroke-linecap="round" stroke-linejoin="round"/>
<path d="M5.26935 21.9736C7.59064 21.9736 9.47241 20.0814 9.47241 17.7472C9.47241 15.413 7.59064 13.5208 5.26935 13.5208C2.94806 13.5208 1.06628 15.413 1.06628 17.7472C1.06628 20.0814 2.94806 21.9736 5.26935 21.9736Z" stroke="white" stroke-width="1.5" stroke-linecap="round" stroke-linejoin="round"/>
<path d="M17.7473 9.45283C20.0685 9.45283 21.9503 7.5606 21.9503 5.22642C21.9503 2.89223 20.0685 1 17.7473 1C15.426 1 13.5442 2.89223 13.5442 5.22642C13.5442 7.5606 15.426 9.45283 17.7473 9.45283Z" stroke="white" stroke-width="1.5" stroke-linecap="round" stroke-linejoin="round"/>
<path d="M17.7209 21.9736C20.0422 21.9736 21.924 20.0814 21.924 17.7472C21.924 15.413 20.0422 13.5208 17.7209 13.5208C15.3996 13.5208 13.5178 15.413 13.5178 17.7472C13.5178 20.0814 15.3996 21.9736 17.7209 21.9736Z" stroke="white" stroke-width="1.5" stroke-linecap="round" stroke-linejoin="round"/>
</svg>
