<svg width="25" height="26" viewBox="0 0 25 26" fill="none" xmlns="http://www.w3.org/2000/svg">
<path fill-rule="evenodd" clip-rule="evenodd" d="M2.30354 0.145888C2.04471 0.232505 1.70113 0.388103 1.53993 0.491749C1.06922 0.794387 0.43466 1.5805 0.225022 2.1206L0.032169 2.61739L0.00973447 10.9592C-0.0123677 19.1347 -0.00937635 19.3126 0.156223 19.8801C0.249119 20.1986 0.357552 20.48 0.397187 20.5055C0.436738 20.5309 2.47071 18.5142 4.91699 16.0239C8.99657 11.8711 9.40364 11.481 9.83255 11.3141C10.4296 11.0817 10.9927 11.0832 11.5994 11.3189C12.0329 11.4873 12.2817 11.7132 14.1223 13.6096C15.2453 14.7668 16.1964 15.7136 16.2358 15.7136C16.2751 15.7136 17.151 14.8447 18.1822 13.7828C19.7866 12.1305 20.135 11.8137 20.5971 11.5869C20.8942 11.4413 21.2043 11.2993 21.2863 11.2715C21.4274 11.2237 21.434 10.9924 21.4109 6.91925L21.3865 2.61739L21.1863 2.09873C20.9098 1.38203 20.0812 0.520016 19.3923 0.232332L18.8938 0.0240896L10.834 0.00628213C3.23839 -0.0105743 2.74707 -0.00253495 2.30354 0.145888ZM15.03 5.00098C16.8895 5.44141 17.2363 8.02192 15.5669 8.99519C15.2013 9.20827 15.0834 9.23274 14.525 9.2113C13.9926 9.19081 13.8325 9.14673 13.4885 8.92552C13.2364 8.76335 12.9862 8.50298 12.8303 8.24071C12.6177 7.88292 12.5753 7.71635 12.5556 7.16242C12.535 6.58082 12.5583 6.45972 12.7633 6.08222C13.0535 5.54826 13.4964 5.17456 14.0091 5.03107C14.5023 4.8931 14.5668 4.8912 15.03 5.00098ZM21.789 12.4279C21.0308 12.5935 20.7812 12.8182 16.999 16.7387C14.9514 18.8612 13.2015 20.7223 13.1101 20.8747C13.0187 21.0271 12.7013 22.033 12.4048 23.1101C11.9196 24.8729 11.8753 25.0984 11.9608 25.3682C12.0606 25.6829 12.4525 25.9995 12.743 26C12.962 26.0004 16.4274 24.973 16.6919 24.8292C16.8061 24.7671 18.6427 22.895 20.7733 20.6688C25.109 16.1385 24.9594 16.3373 24.9594 15.1085C24.9594 14.5734 24.9187 14.374 24.7267 13.9672C24.1924 12.8352 22.9368 12.1773 21.789 12.4279ZM6.07569 17.45C3.68857 19.8788 1.73553 21.881 1.73553 21.8993C1.73553 21.9175 1.98796 22.012 2.29639 22.1092C2.83449 22.2787 3.03066 22.2849 7.12554 22.263L11.3937 22.2401L11.6176 21.4621C11.7407 21.0342 11.9091 20.5479 11.9917 20.3815C12.0742 20.2151 12.7823 19.4043 13.5652 18.5797L14.9885 17.0803L12.9943 15.0588C11.1632 13.2025 10.9762 13.0369 10.708 13.0355C10.4336 13.0339 10.1513 13.303 6.07569 17.45Z" fill="#80FF53"/>
</svg>
