<svg width="28" height="28" viewBox="0 0 28 28" fill="none" xmlns="http://www.w3.org/2000/svg">
<path fill-rule="evenodd" clip-rule="evenodd" d="M6.53982 0.126415C3.311 0.826838 0.785951 3.38601 0.131416 6.62162C-0.000605418 7.27408 -0.015192 8.20615 0.0105435 14.3355C0.0396236 21.2765 0.0406455 21.3102 0.25071 22.0043C1.10435 24.825 3.26816 26.972 6.07769 27.7858L6.81705 28H14.0174H21.2177L21.961 27.7868C24.7783 26.9786 26.9658 24.7881 27.7859 21.954L28 21.2142V14.0101V6.80604L27.7869 6.0624C26.9867 3.27009 24.8239 1.08972 22.0075 0.236289C21.3119 0.0254647 21.298 0.025093 14.2497 0.00538632C8.23845 -0.0114387 7.09224 0.0065018 6.53982 0.126415ZM21.45 1.40428C21.7822 1.49528 22.4511 1.76253 22.9365 1.99818C23.6951 2.36637 23.9439 2.55136 24.7071 3.3149C25.4698 4.07807 25.6554 4.32774 26.0235 5.08636C26.8238 6.73549 26.7922 6.36878 26.7922 14.0101C26.7922 21.6515 26.8238 21.2848 26.0235 22.9339C25.6554 23.6925 25.4698 23.9422 24.7071 24.7054C23.9443 25.4685 23.6948 25.6542 22.9365 26.0225C21.2883 26.8232 21.6548 26.7916 14.0174 26.7916C6.38001 26.7916 6.74653 26.8232 5.09826 26.0225C4.34004 25.6542 4.09049 25.4685 3.32772 24.7054C2.56495 23.9422 2.37941 23.6925 2.01131 22.9339C1.211 21.2848 1.24259 21.6515 1.24259 14.0101C1.24259 6.3672 1.211 6.73335 2.01252 5.08636C2.37439 4.34253 2.5748 4.06979 3.28247 3.3571C4.47383 2.15732 5.77546 1.48841 7.31987 1.28223C7.65647 1.23733 10.8376 1.20917 14.389 1.21967C20.2548 1.23705 20.9014 1.25397 21.45 1.40428ZM21.0133 5.26855C19.9465 5.91924 20.4285 7.59617 21.6823 7.59617C22.3888 7.59617 22.9359 7.04856 22.9359 6.34126C22.9359 5.35798 21.8551 4.75497 21.0133 5.26855ZM13.0455 7.04345C12.2049 7.17424 11.6132 7.36889 10.7557 7.79695C10.1265 8.11105 9.80338 8.35841 9.0827 9.07789C8.31324 9.84607 8.13021 10.0918 7.76192 10.8512C7.20531 11.9987 7.02117 12.7843 7.02117 14.0101C7.02117 15.2359 7.20531 16.0216 7.76192 17.1691C8.12974 17.9276 8.31435 18.1756 9.08418 18.9459C9.85411 19.7161 10.102 19.9008 10.8601 20.2689C12.0321 20.8378 12.7908 21.0126 14.0638 21.0067C16.0601 20.9974 17.4803 20.3954 18.9468 18.9368C19.7072 18.1805 19.897 17.9269 20.2683 17.1706C20.8281 16.0309 21.0136 15.2439 21.0136 14.0101C21.0136 12.7843 20.8295 11.9987 20.2729 10.8512C19.9037 10.0901 19.7233 9.84821 18.9521 9.08095C17.9374 8.07164 17.0314 7.53203 15.8385 7.22676C14.9829 7.00785 13.7814 6.92893 13.0455 7.04345ZM15.1787 8.3862C17.6858 8.91103 19.5741 11.0959 19.7455 13.6699C19.9702 17.0425 17.0482 19.966 13.6774 19.7412C11.6155 19.6038 9.80691 18.4018 8.89995 16.5664C8.05226 14.8508 8.05895 13.1616 8.92057 11.4074C10.0413 9.12539 12.6633 7.85961 15.1787 8.3862Z" fill="#00C1E5"/>
</svg>
