<svg width="44" height="37" viewBox="0 0 44 37" fill="none" xmlns="http://www.w3.org/2000/svg">
<path fill-rule="evenodd" clip-rule="evenodd" d="M27.4656 0.0969448C27.2357 0.254291 17.7441 10.7373 17.0177 11.6361C15.8896 13.032 14.9152 15.2375 14.5885 17.1344C14.5096 17.5922 14.4563 20.1563 14.4563 23.4865C14.4563 28.634 14.4758 29.1493 14.7062 30.0755C15.3328 32.5951 17.1156 34.866 19.3649 36.0093C21.2726 36.9791 21.4679 37.0009 28.2336 37C34.1416 36.9992 34.1478 36.9988 34.8616 36.6969C36.1706 36.1432 36.4332 35.8265 39.5167 31.0809C41.114 28.6225 42.5976 26.2276 42.8135 25.7589C43.1741 24.9763 43.2057 24.801 43.1993 23.6128C43.1914 22.1212 42.9823 21.459 42.1032 20.1411L41.5706 19.3427L41.4972 17.5958C41.4078 15.4665 41.1721 14.7857 40.2201 13.9055C39.2124 12.9738 38.9793 12.9376 33.9928 12.9376H29.6691L29.3603 12.6199C29.1905 12.4452 29.0514 12.1855 29.0514 12.0427C29.0514 11.8998 29.8017 10.2326 30.7186 8.33741L32.3857 4.89185L32.383 3.90055C32.3788 2.25566 31.6491 1.04775 30.2479 0.36596C29.6244 0.0626549 29.3262 -0.00152552 28.5482 2.72303e-05C28.0292 0.0010624 27.542 0.0446688 27.4656 0.0969448ZM2.28495 13.2076C1.40345 13.5613 0.579203 14.425 0.243892 15.3467C-0.0155491 16.0598 -0.0189463 16.207 0.015151 25.2116L0.0498774 34.3527L0.423312 35.0461C0.88545 35.9041 1.59621 36.5442 2.38661 36.8143C2.89329 36.9873 3.55737 37.0138 6.55239 36.9804C10.5601 36.9357 10.6219 36.9221 11.58 35.8841C12.5719 34.8094 12.5019 35.5835 12.5408 25.2414C12.5794 14.9564 12.6041 15.2913 11.7328 14.2446C11.4852 13.947 10.9917 13.5459 10.6361 13.3529L9.98968 13.0023L6.46671 12.9729C3.17978 12.9453 2.89958 12.9611 2.28495 13.2076Z" fill="white"/>
</svg>
