<svg width="19" height="24" viewBox="0 0 19 24" fill="none" xmlns="http://www.w3.org/2000/svg">
<path d="M10.0824 22.6836C12.0009 21.0921 18 15.6255 18 9.5C18 4.80558 14.1944 1 9.5 1C4.80558 1 1 4.80558 1 9.5C1 15.6255 6.99914 21.0921 8.91757 22.6836C9.25889 22.9668 9.74111 22.9668 10.0824 22.6836Z" fill="#ECECEC" stroke="#A0A0A0" stroke-width="1.5" stroke-linecap="round" stroke-linejoin="round"/>
<path d="M9.5 12.4823C11.4227 12.4823 12.9814 10.9236 12.9814 9.00089C12.9814 7.07814 11.4227 5.51945 9.5 5.51945C7.57725 5.51945 6.01855 7.07814 6.01855 9.00089C6.01855 10.9236 7.57725 12.4823 9.5 12.4823Z" fill="white" stroke="#A0A0A0" stroke-width="1.5" stroke-linecap="round" stroke-linejoin="round"/>
</svg>
