<svg width="15" height="15" viewBox="0 0 15 15" fill="none" xmlns="http://www.w3.org/2000/svg">
<path d="M9.08707 1.09966C8.16718 1.03419 7.21969 1 6.25196 1C5.28421 1 4.33672 1.03419 3.41682 1.09967C2.40458 1.17172 1.63021 1.92654 1.58449 2.84563C1.51387 4.26513 1.47668 5.73869 1.47668 7.25C1.47668 8.7613 1.51387 10.2349 1.58449 11.6544C1.63021 12.5735 2.40459 13.3283 3.41682 13.4003C4.33672 13.4658 5.28421 13.5 6.25196 13.5C7.21969 13.5 8.16718 13.4658 9.08707 13.4003C10.0993 13.3283 10.8737 12.5735 10.9194 11.6544C10.9446 11.1479 10.9655 10.6346 10.9821 10.1151V4.38496C10.9655 3.86546 10.9446 3.3521 10.9194 2.84563C10.8737 1.92654 10.0993 1.17171 9.08707 1.09966Z" fill="#D7E0FF"/>
<path d="M8.38639 7.24997C8.38639 7.74568 8.31695 8.4435 8.24532 9.03149C8.17231 9.63076 7.57273 10.0146 7.02008 9.77164C6.00839 9.32689 5.07594 8.66711 4.42332 7.70759C4.23533 7.4312 4.23532 7.06874 4.42329 6.79234C5.07586 5.83279 6.00834 5.17303 7.02003 4.72828C7.57267 4.48534 8.17223 4.86916 8.24526 5.4684C8.31692 6.05639 8.38639 6.75424 8.38639 7.24997Z" fill="white" stroke="#00C1E5" stroke-width="1.5" stroke-linecap="round" stroke-linejoin="round"/>
<path d="M10.9821 4.38496C10.9655 3.86546 10.9446 3.3521 10.9194 2.84563C10.8737 1.92654 10.0993 1.17171 9.08707 1.09966C8.16718 1.03419 7.21969 1 6.25196 1C5.28421 1 4.33672 1.03419 3.41682 1.09967C2.40458 1.17172 1.63021 1.92654 1.58449 2.84563C1.51387 4.26513 1.47668 5.73869 1.47668 7.25C1.47668 8.7613 1.51387 10.2349 1.58449 11.6544C1.63021 12.5735 2.40459 13.3283 3.41682 13.4003C4.33672 13.4658 5.28421 13.5 6.25195 13.5C7.21969 13.5 8.16718 13.4658 9.08707 13.4003C10.0993 13.3283 10.8737 12.5735 10.9194 11.6544C10.9446 11.1479 10.9655 10.6346 10.9821 10.1151" stroke="#00C1E5" stroke-width="1.5" stroke-linecap="round"/>
<path d="M13.5233 7.25L8.38641 7.25" stroke="#00C1E5" stroke-width="1.5" stroke-linecap="round" stroke-linejoin="round"/>
</svg>
