<svg width="94" height="52" viewBox="0 0 94 52" fill="none" xmlns="http://www.w3.org/2000/svg">
<g filter="url(#filter0_d_22_1245)">
<path fill-rule="evenodd" clip-rule="evenodd" d="M14 18.9186C14 9.57471 21.5738 2 30.9177 2C36.3252 2 41.9793 2 46.1344 2C50.425 2 56.4355 2 62.1482 2C71.4857 2 79.0539 9.56952 79.0539 18.907V18.907C79.0539 19.1952 78.8711 19.4518 78.5987 19.5461L74.6439 20.9147C55.6893 27.4742 35.0425 27.2308 16.2479 20.2263L14.4404 19.5527C14.1756 19.454 14 19.2012 14 18.9186V18.9186Z" fill="white"/>
</g>
<rect x="30.8658" y="9.22821" width="31.3222" height="7.22821" rx="1.5" fill="#E8E6EA"/>
<defs>
<filter id="filter0_d_22_1245" x="0" y="0" width="93.0538" height="51.663" filterUnits="userSpaceOnUse" color-interpolation-filters="sRGB">
<feFlood flood-opacity="0" result="BackgroundImageFix"/>
<feColorMatrix in="SourceAlpha" type="matrix" values="0 0 0 0 0 0 0 0 0 0 0 0 0 0 0 0 0 0 127 0" result="hardAlpha"/>
<feOffset dy="12"/>
<feGaussianBlur stdDeviation="7"/>
<feColorMatrix type="matrix" values="0 0 0 0 0 0 0 0 0 0 0 0 0 0 0 0 0 0 0.12 0"/>
<feBlend mode="normal" in2="BackgroundImageFix" result="effect1_dropShadow_22_1245"/>
<feBlend mode="normal" in="SourceGraphic" in2="effect1_dropShadow_22_1245" result="shape"/>
</filter>
</defs>
</svg>
