<svg width="24" height="24" viewBox="0 0 24 24" fill="none" xmlns="http://www.w3.org/2000/svg">
<path d="M17.1741 12.0314C17.174 13.0347 16.8774 14.0157 16.3216 14.8511C15.7657 15.6864 14.9755 16.339 14.0501 16.7267C13.1247 17.1144 12.1053 17.2201 11.12 17.0304C10.1347 16.8407 9.22746 16.3642 8.51213 15.6606C7.7968 14.957 7.3053 14.0577 7.09937 13.0757C6.89343 12.0937 6.98223 11.0727 7.35462 10.141C7.72701 9.20927 8.36638 8.40836 9.19245 7.83882C10.0185 7.26929 10.9944 6.95652 11.9977 6.93979C12.6734 6.92853 13.3446 7.05191 13.9722 7.30274C14.5998 7.55356 15.1711 7.92682 15.6529 8.40074C16.1348 8.87466 16.5174 9.43977 16.7786 10.0631C17.0397 10.6864 17.1742 11.3555 17.1741 12.0314V12.0314Z" stroke="#00C1E5" stroke-width="1.5" stroke-linecap="round" stroke-linejoin="round"/>
<path d="M17.1741 12.0317V14.2381C17.1741 20.1613 26.4577 14.5775 21.5868 6.53283C20.6059 4.85779 19.2061 3.46684 17.5248 2.49675C15.8435 1.52667 13.9387 1.01084 11.9977 1C10.3669 1.00504 8.75762 1.37154 7.28553 2.07313C5.81345 2.77472 4.51521 3.79394 3.48427 5.05743C2.45333 6.32093 1.71533 7.79727 1.32338 9.38019C0.931437 10.9631 0.895299 12.6132 1.21757 14.2118C1.53984 15.8104 2.2125 17.3176 3.18714 18.625C4.16178 19.9324 5.41415 21.0075 6.85411 21.7729C8.29407 22.5382 9.88579 22.9749 11.5147 23.0513C13.1437 23.1277 14.7693 22.842 16.2746 22.2149" stroke="#00C1E5" stroke-width="1.5" stroke-linecap="round" stroke-linejoin="round"/>
</svg>
