<svg width="22" height="22" viewBox="0 0 22 22" fill="none" xmlns="http://www.w3.org/2000/svg">
<path d="M15.7039 11.0286C15.7038 11.9407 15.4342 12.8325 14.9289 13.5919C14.4236 14.3514 13.7052 14.9446 12.8639 15.2971C12.0226 15.6495 11.0959 15.7456 10.2002 15.5732C9.3045 15.4007 8.47971 14.9675 7.82941 14.3278C7.17911 13.6882 6.73229 12.8707 6.54508 11.9779C6.35786 11.0852 6.43859 10.1571 6.77712 9.31005C7.11566 8.46304 7.69691 7.73493 8.44788 7.21717C9.19885 6.69941 10.0861 6.41508 10.9981 6.39987C11.6124 6.38963 12.2226 6.5018 12.7931 6.72982C13.3636 6.95785 13.883 7.29717 14.3211 7.72801C14.7591 8.15885 15.1069 8.67258 15.3444 9.23924C15.5818 9.80591 15.704 10.4142 15.7039 11.0286V11.0286Z" stroke="#A0A0A0" stroke-width="1.5" stroke-linecap="round" stroke-linejoin="round"/>
<path d="M15.7037 11.0288V13.0346C15.7037 18.4193 24.1434 13.3432 19.7152 6.02985C18.8236 4.50708 17.551 3.24258 16.0225 2.36069C14.4941 1.47879 12.7625 1.00986 10.9979 1C9.5154 1.00458 8.05238 1.33776 6.71412 1.97557C5.37586 2.61338 4.19565 3.53994 3.25843 4.68858C2.32121 5.83721 1.6503 7.17934 1.29398 8.61836C0.93767 10.0574 0.904817 11.5575 1.19779 13.0107C1.49076 14.464 2.10227 15.8342 2.98831 17.0227C3.87434 18.2113 5.01286 19.1887 6.32191 19.8844C7.63097 20.5802 9.078 20.9771 10.5588 21.0466C12.0397 21.1161 13.5175 20.8564 14.886 20.2862" stroke="#A0A0A0" stroke-width="1.5" stroke-linecap="round" stroke-linejoin="round"/>
</svg>
