<svg width="27" height="27" viewBox="0 0 27 27" fill="none" xmlns="http://www.w3.org/2000/svg">
<path d="M5.29921 1.45178C3.82343 2.92756 2.78859 4.76186 2.27948 6.74996M21.6212 1.45178C23.097 2.92756 24.1318 4.76186 24.6409 6.74996" stroke="#00C1E5" stroke-width="1.5" stroke-linecap="round" stroke-linejoin="round"/>
<path d="M8.74825 4.86105C10.0085 3.60081 11.7177 2.89282 13.5 2.89282C15.2822 2.89282 16.9914 3.60081 18.2517 4.86105C19.5119 6.12128 20.2199 7.83053 20.2199 9.61277C20.2199 11.5592 20.6558 12.9784 21.2395 14.0022C21.5038 14.4658 22.0251 14.6808 22.5351 14.8383C24.5225 15.4519 24.39 17.9349 23.2009 18.8142C23.2009 18.8142 21.5425 20.25 13.5 20.25C5.45748 20.25 3.79904 18.8142 3.79904 18.8142C2.6099 17.9349 2.47742 15.4519 4.46479 14.8383C4.97478 14.6808 5.49608 14.4658 5.76045 14.0022C6.34416 12.9784 6.78002 11.5592 6.78002 9.61277C6.78002 7.83053 7.48801 6.12128 8.74825 4.86105Z" fill="#D7E0FF"/>
<path d="M8.74825 4.86105L9.27858 5.39138V5.39138L8.74825 4.86105ZM3.79904 18.8142L4.28993 18.2472C4.2754 18.2346 4.26039 18.2226 4.24494 18.2112L3.79904 18.8142ZM5.76045 14.0022L6.41199 14.3736H6.41199L5.76045 14.0022ZM4.46479 14.8383L4.24354 14.1217L4.24354 14.1217L4.46479 14.8383ZM18.2517 4.86105L18.782 4.33072V4.33072L18.2517 4.86105ZM23.2009 18.8142L22.755 18.2112C22.7395 18.2226 22.7245 18.2346 22.71 18.2472L23.2009 18.8142ZM21.2395 14.0022L20.5879 14.3736L21.2395 14.0022ZM22.5351 14.8383L22.7564 14.1217H22.7564L22.5351 14.8383ZM13.5 2.14282C11.5188 2.14282 9.6188 2.92983 8.21792 4.33072L9.27858 5.39138C10.3982 4.2718 11.9166 3.64282 13.5 3.64282V2.14282ZM8.21792 4.33072C6.81703 5.73161 6.03002 7.63162 6.03002 9.61277H7.53002C7.53002 8.02944 8.15899 6.51096 9.27858 5.39138L8.21792 4.33072ZM3.79904 18.8142C3.30814 19.3812 3.30881 19.3818 3.30949 19.3824C3.30972 19.3826 3.31041 19.3832 3.31088 19.3836C3.31181 19.3844 3.31278 19.3852 3.31377 19.3861C3.31575 19.3877 3.31783 19.3895 3.32002 19.3913C3.32441 19.395 3.32922 19.3989 3.33447 19.4031C3.34499 19.4116 3.35727 19.4211 3.37145 19.4317C3.39982 19.4528 3.43578 19.4781 3.48037 19.5067C3.56954 19.5641 3.69325 19.6352 3.85996 19.715C4.19297 19.8744 4.69967 20.0696 5.44976 20.2592C6.94737 20.6378 9.43799 21 13.5 21V19.5C9.51945 19.5 7.15961 19.1443 5.81738 18.805C5.14755 18.6356 4.73698 18.4718 4.5077 18.3621C4.39327 18.3073 4.32458 18.2662 4.29164 18.2451C4.27518 18.2345 4.26765 18.2289 4.2678 18.229C4.26787 18.229 4.26986 18.2305 4.2736 18.2335C4.27548 18.235 4.27778 18.2369 4.28051 18.2392C4.28188 18.2403 4.28335 18.2415 4.28492 18.2429C4.2857 18.2435 4.28651 18.2442 4.28735 18.245C4.28777 18.2453 4.28841 18.2459 4.28862 18.246C4.28927 18.2466 4.28993 18.2472 3.79904 18.8142ZM6.03002 9.61277C6.03002 11.4433 5.62132 12.7319 5.10891 13.6307L6.41199 14.3736C7.067 13.2248 7.53002 11.6751 7.53002 9.61277H6.03002ZM4.24354 14.1217C2.91726 14.5311 2.28151 15.5961 2.19327 16.6649C2.10916 17.6836 2.51404 18.7968 3.35313 19.4173L4.24494 18.2112C3.8949 17.9523 3.63897 17.3844 3.68818 16.7883C3.73326 16.2424 4.02495 15.759 4.68604 15.5549L4.24354 14.1217ZM13.5 3.64282C15.0833 3.64282 16.6018 4.2718 17.7214 5.39138L18.782 4.33072C17.3811 2.92983 15.4811 2.14282 13.5 2.14282V3.64282ZM17.7214 5.39138C18.8409 6.51096 19.4699 8.02944 19.4699 9.61277H20.9699C20.9699 7.63162 20.1829 5.73161 18.782 4.33072L17.7214 5.39138ZM23.2009 18.8142C22.71 18.2472 22.7107 18.2466 22.7113 18.246C22.7115 18.2459 22.7122 18.2453 22.7126 18.245C22.7134 18.2442 22.7142 18.2435 22.715 18.2429C22.7166 18.2415 22.7181 18.2403 22.7194 18.2392C22.7221 18.2369 22.7245 18.235 22.7263 18.2335C22.7301 18.2305 22.7321 18.229 22.7321 18.229C22.7323 18.2289 22.7248 18.2345 22.7083 18.2451C22.6753 18.2662 22.6067 18.3073 22.4922 18.3621C22.2629 18.4718 21.8524 18.6356 21.1826 18.805C19.8403 19.1443 17.4805 19.5 13.5 19.5V21C17.5619 21 20.0526 20.6378 21.5502 20.2592C22.3003 20.0696 22.807 19.8744 23.14 19.715C23.3067 19.6352 23.4304 19.5641 23.5196 19.5067C23.5641 19.4781 23.6001 19.4528 23.6285 19.4317C23.6427 19.4211 23.6549 19.4116 23.6655 19.4031C23.6707 19.3989 23.6755 19.395 23.6799 19.3913C23.6821 19.3895 23.6842 19.3877 23.6862 19.3861C23.6872 19.3852 23.6881 19.3844 23.6891 19.3836C23.6895 19.3832 23.6902 19.3826 23.6904 19.3824C23.6911 19.3818 23.6918 19.3812 23.2009 18.8142ZM19.4699 9.61277C19.4699 11.6751 19.9329 13.2248 20.5879 14.3736L21.891 13.6307C21.3786 12.7319 20.9699 11.4433 20.9699 9.61277H19.4699ZM22.3139 15.5549C22.975 15.759 23.2667 16.2424 23.3117 16.7883C23.361 17.3844 23.105 17.9523 22.755 18.2112L23.6468 19.4173C24.4859 18.7968 24.8908 17.6836 24.8067 16.6649C24.7184 15.5961 24.0827 14.5311 22.7564 14.1217L22.3139 15.5549ZM20.5879 14.3736C21.0117 15.1168 21.8067 15.3983 22.3139 15.5549L22.7564 14.1217C22.2436 13.9633 21.996 13.8149 21.891 13.6307L20.5879 14.3736ZM5.10891 13.6307C5.00389 13.8149 4.75637 13.9633 4.24354 14.1217L4.68604 15.5549C5.1932 15.3983 5.98827 15.1168 6.41199 14.3736L5.10891 13.6307Z" fill="#00C1E5"/>
<path d="M11.7804 23.6716C11.5846 23.3066 11.13 23.1694 10.765 23.3652C10.3999 23.561 10.2627 24.0156 10.4585 24.3806L11.7804 23.6716ZM16.8824 24.3806C17.0782 24.0156 16.941 23.561 16.576 23.3652C16.211 23.1694 15.7563 23.3066 15.5606 23.6716L16.8824 24.3806ZM13.6705 24.8036C12.8538 24.8036 12.1426 24.347 11.7804 23.6716L10.4585 24.3806C11.0715 25.5236 12.2793 26.3036 13.6705 26.3036V24.8036ZM15.5606 23.6716C15.1983 24.347 14.4872 24.8036 13.6705 24.8036V26.3036C15.0616 26.3036 16.2694 25.5236 16.8824 24.3806L15.5606 23.6716Z" fill="#00C1E5"/>
</svg>
