<svg width="22" height="22" viewBox="0 0 22 22" fill="none" xmlns="http://www.w3.org/2000/svg">
<path d="M6.30236 1.35724C5.56758 0.792812 4.51905 0.884328 3.91712 1.58871C3.36601 2.23362 3.17455 2.63394 2.2392 3.80397C0.535804 5.93473 0.53581 9.02002 2.24861 11.1432C3.51303 12.7106 4.83876 14.2922 6.32076 15.7742C7.80276 17.2562 9.38433 18.5819 10.9517 19.8463C13.0749 21.5591 16.1602 21.5591 18.291 19.8558C19.4794 18.9057 19.8639 18.7331 20.5279 18.1607C21.2056 17.5765 21.3187 16.5714 20.7879 15.8511C19.7529 14.4466 18.4541 13.1492 17.2711 11.8888C16.889 11.4816 16.2521 11.459 15.8259 11.8198C15.3255 12.2435 15.2756 12.2136 14.3483 13.083C11.911 11.6347 10.4339 10.1395 9.01199 7.74661C9.88451 6.81593 9.85408 6.76625 10.282 6.2614C10.6426 5.8359 10.6204 5.19986 10.2117 4.82032C8.95438 3.65275 7.67109 2.40866 6.30236 1.35724Z" fill="#ECECEC" stroke="#A0A0A0" stroke-width="1.5" stroke-linejoin="round"/>
</svg>
