<svg width="24" height="20" viewBox="0 0 24 20" fill="none" xmlns="http://www.w3.org/2000/svg">
<path d="M0.751343 16.2105C0.751343 17.0035 1.37028 17.653 2.1566 17.7552C4.58268 18.0705 6.03246 18.6901 11.6444 18.6901C17.2563 18.6901 18.706 18.0705 21.1321 17.7552C21.9184 17.653 22.5374 17.0035 22.5374 16.2105V3.24058C22.5374 2.55177 22.0688 1.95591 21.3916 1.82994C19.699 1.51508 16.2293 1 11.6444 1C6.03246 1 4.58268 1.61958 2.1566 1.93484C1.37027 2.03702 0.751343 2.68661 0.751343 3.47955L0.751343 16.2105Z" fill="white" stroke="#A0A0A0" stroke-width="1.5" stroke-linecap="round" stroke-linejoin="round"/>
<path d="M22.9071 7.27715H1V4.54242C1 3.15241 2.0854 2.01016 3.45565 1.77664C3.70516 1.73411 3.9521 1.68956 4.2034 1.64422C5.89047 1.33985 7.77416 1 11.9535 1C15.8843 1 18.9998 1.37441 20.8878 1.67992C22.0807 1.87297 22.9071 2.91708 22.9071 4.12553V7.27715Z" fill="#ECECEC" stroke="#A0A0A0" stroke-width="1.5" stroke-linecap="round" stroke-linejoin="round"/>
<path d="M14.7924 13.8952H18.5028" stroke="#A0A0A0" stroke-width="1.5" stroke-linecap="round" stroke-linejoin="round"/>
</svg>
