<svg width="17" height="17" viewBox="0 0 17 17" fill="none" xmlns="http://www.w3.org/2000/svg">
<path fill-rule="evenodd" clip-rule="evenodd" d="M7.44522 0.0133993C4.48688 0.45932 2.08028 2.18382 0.83825 4.74782C0.175108 6.11667 0 6.90053 0 8.49934C0 10.0981 0.175108 10.882 0.83825 12.2509C1.96937 14.5859 4.06154 16.2239 6.72149 16.8571C7.47465 17.0364 9.40606 17.0499 10.1744 16.8813C12.7469 16.3168 14.8718 14.7177 16.0584 12.4533C16.3971 11.807 16.7203 10.9132 16.881 10.1784C17.0397 9.453 17.0397 7.54567 16.881 6.82028C16.144 3.45075 13.6512 0.923608 10.2976 0.146053C9.91829 0.0581173 9.50959 0.0224029 8.70629 0.00697664C8.11179 -0.00442797 7.54431 -0.00154679 7.44522 0.0133993ZM9.81723 1.03237C12.1295 1.43646 14.18 2.95165 15.2493 5.04632C15.8082 6.1411 16.067 7.23408 16.067 8.49934C16.067 9.41567 15.9675 10.0544 15.696 10.8809C14.8336 13.5062 12.5813 15.4566 9.81723 15.9718C9.14802 16.0965 7.84474 16.0966 7.17499 15.9719C5.59782 15.6784 4.29171 14.9887 3.1478 13.8453C2.23827 12.9362 1.65056 11.986 1.2705 10.8103C0.796394 9.34358 0.804081 7.53571 1.29061 6.09836C1.91496 4.25394 3.31637 2.62902 5.04157 1.74912C6.51383 0.998218 8.18571 0.747317 9.81723 1.03237ZM8.18169 4.52273C8.01054 4.71642 7.5353 5.7339 7.5353 5.90665C7.5353 6.3899 8.28665 6.49188 8.45035 6.03084C8.49311 5.91049 8.50884 5.93606 8.90271 6.76757C9.127 7.24099 9.31599 7.56013 9.40468 7.61548C9.48299 7.66428 9.85776 7.74891 10.2376 7.80359C11.4215 7.974 11.3757 7.86974 10.6055 8.64177C10.1156 9.13283 9.93715 9.35132 9.93673 9.46069C9.93637 9.54268 9.99516 9.95391 10.0674 10.3746C10.1396 10.7951 10.1829 11.1551 10.1635 11.1744C10.1442 11.1937 9.79261 11.0319 9.3821 10.8148C8.97159 10.5977 8.57346 10.4201 8.49737 10.4201C8.42123 10.4201 8.02783 10.5957 7.62315 10.8103C7.21847 11.0249 6.86237 11.2004 6.83174 11.2004C6.80118 11.2004 6.83745 10.8181 6.91239 10.3507C7.02913 9.62305 7.03748 9.47425 6.97052 9.31405C6.92752 9.21122 6.43072 8.68871 5.86649 8.15294C4.83283 7.17136 4.73285 7.10581 4.44094 7.21782C4.31105 7.26764 4.18326 7.56854 4.21707 7.74507C4.23136 7.81986 4.65376 8.29093 5.15566 8.79183L6.06826 9.70264L5.87405 10.8267C5.64214 12.1689 5.63685 12.2787 5.79617 12.4496C6.01259 12.6818 6.22367 12.6237 7.38535 12.0118C7.97973 11.6988 8.48098 11.4421 8.49917 11.4416C8.51743 11.441 9.01663 11.6971 9.60861 12.0108C10.3002 12.3771 10.7515 12.581 10.8711 12.581C11.0811 12.581 11.318 12.3727 11.3193 12.187C11.3198 12.1231 11.2329 11.5376 11.1262 10.8859L10.9321 9.70096L11.8459 8.78067C12.6752 7.94549 12.7597 7.84087 12.7597 7.65011C12.7597 7.26596 12.6298 7.20785 11.3786 7.0321C10.7675 6.94627 10.2067 6.86259 10.1322 6.84615C10.0259 6.82268 9.87926 6.5809 9.45026 5.72201C9.14964 5.12015 8.86182 4.58053 8.81072 4.52273C8.75379 4.45844 8.63171 4.41768 8.49611 4.41768C8.36046 4.41768 8.23849 4.45844 8.18169 4.52273ZM6.98409 6.9402C6.83721 7.08702 6.81018 7.15311 6.84303 7.28534C6.9486 7.71044 7.40961 7.86764 7.65102 7.56086C7.85981 7.29555 7.80847 6.98984 7.53097 6.84645C7.28555 6.71955 7.18808 6.7363 6.98409 6.9402Z" fill="#626262"/>
</svg>
