<svg width="26" height="26" viewBox="0 0 26 26" fill="none" xmlns="http://www.w3.org/2000/svg">
<path d="M1.45974 18.6338C1.55695 19.5943 2.31325 20.3629 3.27122 20.4826C5.13876 20.716 7.08341 20.9916 9.08092 20.9916C11.0784 20.9916 13.0231 20.716 14.8906 20.4826C15.8486 20.3629 16.6049 19.5943 16.7021 18.6338C16.9126 16.554 17.1618 14.3856 17.1618 12.1567C17.1618 9.92782 16.9126 7.75934 16.7021 5.67961C16.6049 4.7191 15.8486 3.95046 14.8906 3.83075C13.0231 3.59736 11.0784 3.32178 9.08092 3.32178C7.08341 3.32178 5.13876 3.59736 3.27122 3.83075C2.31325 3.95046 1.55695 4.7191 1.45974 5.67961C1.24925 7.75934 1 9.92782 1 12.1567C1 14.3856 1.24925 16.554 1.45974 18.6338Z" fill="#D7E0FF"/>
<path d="M13.3531 3.6377L13.2622 4.38217L13.3531 3.6377ZM4.80875 3.6377L4.71786 2.89323L4.80875 3.6377ZM1.30255 7.22119L2.04882 7.29585L1.30255 7.22119ZM4.80875 20.6757L4.71786 21.4201L4.80875 20.6757ZM1.30255 17.0922L2.04882 17.0175L1.30255 17.0922ZM15.9959 6.70108C16.114 7.0981 16.5316 7.32418 16.9286 7.20606C17.3256 7.08793 17.5517 6.67033 17.4336 6.27332L15.9959 6.70108ZM6.79419 21.6394C7.20699 21.6737 7.56937 21.3668 7.6036 20.954C7.63783 20.5412 7.33094 20.1788 6.91814 20.1446L6.79419 21.6394ZM9.08092 4.07178C10.4889 4.07178 11.8792 4.21334 13.2622 4.38217L13.444 2.89323C12.0475 2.72275 10.5834 2.57178 9.08092 2.57178V4.07178ZM4.89963 4.38217C6.28262 4.21334 7.67292 4.07178 9.08092 4.07178V2.57178C7.57844 2.57178 6.11437 2.72275 4.71786 2.89323L4.89963 4.38217ZM0.55627 7.14654C0.395539 8.75328 0.25 10.4335 0.25 12.1567H1.75C1.75 10.5124 1.88893 8.89421 2.04882 7.29585L0.55627 7.14654ZM0.25 12.1567C0.25 13.8798 0.395539 15.5601 0.556271 17.1668L2.04882 17.0175C1.88893 15.4192 1.75 13.8009 1.75 12.1567H0.25ZM4.71786 2.89323C2.52029 3.1615 0.776631 4.9437 0.55627 7.14654L2.04882 7.29585C2.19935 5.79111 3.39858 4.56542 4.89963 4.38217L4.71786 2.89323ZM4.89963 19.9312C3.39858 19.748 2.19935 18.5223 2.04882 17.0175L0.556271 17.1668C0.776632 19.3697 2.52029 21.1519 4.71786 21.4201L4.89963 19.9312ZM17.4336 6.27332C16.9027 4.48904 15.3451 3.12531 13.444 2.89323L13.2622 4.38217C14.5571 4.54025 15.6312 5.47553 15.9959 6.70108L17.4336 6.27332ZM6.91814 20.1446C6.24145 20.0885 5.56945 20.013 4.89963 19.9312L4.71786 21.4201C5.3961 21.5029 6.08975 21.581 6.79419 21.6394L6.91814 20.1446Z" fill="#00C1E5"/>
<path d="M4.87802 4.23441C4.9958 5.17415 5.8306 5.87863 6.7756 5.94163C7.52496 5.99159 8.2952 6.0355 9.081 6.0355C9.86679 6.0355 10.637 5.99159 11.3864 5.94163C12.3314 5.87863 13.1662 5.17415 13.284 4.23441C13.3136 3.99831 13.3325 3.75927 13.3325 3.51775C13.3325 3.27622 13.3136 3.03719 13.284 2.80109C13.1662 1.86135 12.3314 1.15686 11.3864 1.09386C10.637 1.04391 9.86679 1 9.081 1C8.2952 1 7.52496 1.04391 6.7756 1.09386C5.8306 1.15686 4.9958 1.86135 4.87802 2.80109C4.84843 3.03719 4.82947 3.27622 4.82947 3.51775C4.82947 3.75927 4.84843 3.99831 4.87802 4.23441Z" fill="white" stroke="#00C1E5" stroke-width="1.5"/>
<path d="M11.964 22.7746C12.0623 23.735 12.8196 24.5053 13.7774 24.6264C15.2373 24.811 16.7524 25.0123 18.3061 25.0123C19.8598 25.0123 21.3749 24.811 22.8347 24.6264C23.7925 24.5053 24.5498 23.735 24.6481 22.7746C24.8156 21.1389 25 19.4387 25 17.6938C25 15.949 24.8156 14.2488 24.6481 12.6131C24.5498 11.6527 23.7925 10.8824 22.8347 10.7613C21.3749 10.5766 19.8598 10.3754 18.3061 10.3754C16.7524 10.3754 15.2373 10.5766 13.7774 10.7613C12.8196 10.8824 12.0623 11.6527 11.964 12.6131C11.7966 14.2488 11.6122 15.949 11.6122 17.6938C11.6122 19.4387 11.7966 21.1389 11.964 22.7746Z" fill="white" stroke="#00C1E5" stroke-width="1.5"/>
<path d="M20.3296 16.3684C20.7438 16.3684 21.0796 16.0326 21.0796 15.6184C21.0796 15.2042 20.7438 14.8684 20.3296 14.8684L20.3296 16.3684ZM16.2825 14.8684C15.8683 14.8684 15.5325 15.2042 15.5325 15.6184C15.5325 16.0326 15.8683 16.3684 16.2825 16.3684L16.2825 14.8684ZM20.3296 14.8684L16.2825 14.8684L16.2825 16.3684L20.3296 16.3684L20.3296 14.8684Z" fill="#00C1E5"/>
<path d="M20.3296 20.9248C20.7438 20.9248 21.0796 20.589 21.0796 20.1748C21.0796 19.7606 20.7438 19.4248 20.3296 19.4248L20.3296 20.9248ZM16.2825 19.4248C15.8683 19.4248 15.5325 19.7606 15.5325 20.1748C15.5325 20.589 15.8683 20.9248 16.2825 20.9248L16.2825 19.4248ZM20.3296 19.4248L16.2825 19.4248L16.2825 20.9248L20.3296 20.9248L20.3296 19.4248Z" fill="#00C1E5"/>
</svg>
