<svg width="168" height="55" viewBox="0 0 168 55" fill="none" xmlns="http://www.w3.org/2000/svg">
<path d="M53.0706 37.9403C52.3306 36.2903 50.6206 35.4203 48.8306 35.6803C43.9606 36.1103 44.9106 42.9803 44.9506 50.5703C44.9806 53.6703 44.7206 54.2303 41.6506 54.2003C40.0106 54.2103 38.7506 54.1703 37.1106 54.2403C35.6906 54.2703 35.3506 53.1203 35.3206 52.1403C35.2806 50.7903 35.3106 40.7103 35.3506 36.6503C35.4306 29.7003 37.2406 27.3503 43.6506 25.8003C46.7406 25.0603 49.9206 24.6703 52.8606 23.2903C57.6906 21.0303 59.2606 15.5703 56.5206 10.7703C55.1006 8.30032 53.0906 6.39033 50.8506 4.09033C53.1406 4.26033 54.9606 4.87028 56.7706 5.47028C62.9306 7.54028 68.7106 10.4203 73.6406 14.9403C79.5806 20.3803 83.2206 26.9703 82.9106 35.6503C82.7206 41.0603 82.8706 47.1203 82.8606 52.5303C82.8606 53.0903 82.4007 54.2903 80.7906 54.2003C78.8406 54.0903 76.8906 54.1903 74.9406 54.1903C73.1606 54.1903 72.6306 53.5403 72.6806 51.7103C72.6906 48.7803 72.2706 40.3603 72.2306 40.2203C71.6406 36.3403 69.4706 35.4803 66.5707 35.8803C64.9907 36.3103 64.0706 37.4403 63.7606 39.1403C63.4006 43.2203 63.5106 47.3303 63.4906 51.4303C63.4706 53.4403 63.3406 54.3103 60.9306 54.2103C59.1506 54.1703 57.3806 54.2503 55.5906 54.1903C54.7706 54.1603 54.1906 53.3703 54.1906 52.5603C54.2206 47.9803 54.2606 40.6403 53.0706 37.9403Z" fill="url(#paint0_linear_12_2128)"/>
<path d="M33.9007 18.7999C33.8107 17.6799 34.5907 17.3399 35.2807 17.4399C35.9807 17.5399 37.1407 17.4799 36.9607 18.8599C36.8507 19.7799 36.5407 20.6699 35.4707 20.6799C34.3207 20.7099 34.0307 19.7899 33.9007 18.7999Z" fill="#00C0E5"/>
<path d="M53.8004 12.8501C52.4704 9.84011 50.3304 7.62014 47.8204 5.70014C41.5304 0.880142 33.0804 0.770156 27.3404 6.84016C23.4204 10.9802 22.4504 16.2501 22.4004 21.8501C21.9204 27.5001 22.4104 33.1801 21.8904 38.8201C22.1304 38.7101 22.2604 38.5501 22.3204 38.3701C22.2604 38.5601 22.1304 38.7201 21.8804 38.8301C21.6104 40.4901 21.4404 42.1901 20.8104 43.7501C20.1104 45.5001 18.1104 46.9301 16.2104 46.5701C14.4304 46.2301 13.2004 44.7101 12.1004 43.1201C10.8404 41.2901 9.93041 39.2601 9.06041 37.2301C8.67041 36.3201 8.18042 35.9601 7.26042 35.9901C5.40042 36.0501 3.54042 36.0501 1.69042 35.9901C0.650419 35.9501 0.440417 36.3501 0.610417 37.3901C1.40042 42.2201 3.67042 46.2401 6.72042 49.7601C10.7004 54.3501 15.6104 55.6101 21.2104 53.8501C26.5804 52.1601 28.5204 47.6602 29.4404 42.3402C30.1504 38.2602 30.0204 34.1402 30.0204 30.0302C30.0204 26.1902 29.9904 22.3501 30.6804 18.5701C31.2404 15.5101 32.1704 12.6602 35.2204 11.3402C38.9104 9.75016 43.4004 11.5201 45.7804 15.8301C46.6004 17.3201 47.5604 17.5102 48.8604 17.3402C49.8604 17.2002 50.8404 16.9801 51.8304 16.8101C55.0604 16.2501 55.1904 16.0001 53.8004 12.8501Z" fill="url(#paint1_linear_12_2128)"/>
<path d="M98.3189 23.6466C96.5613 23.6466 95.1693 23.25 94.1427 22.4567C93.1317 21.6635 92.6262 20.6058 92.6262 19.2837V18.5605C92.6262 18.4049 92.704 18.3272 92.8595 18.3272H94.0027C94.1583 18.3272 94.236 18.4049 94.236 18.5605V19.1904C94.236 20.0925 94.6093 20.8236 95.3559 21.3835C96.1025 21.9279 97.1368 22.2001 98.4589 22.2001C99.6566 22.2001 100.567 21.9512 101.189 21.4535C101.811 20.9402 102.122 20.2636 102.122 19.4237C102.122 18.8793 101.974 18.4127 101.679 18.0239C101.399 17.635 100.955 17.2695 100.349 16.9273C99.7577 16.5851 98.9178 16.1885 97.829 15.7374C96.6624 15.2708 95.7525 14.8664 95.0993 14.5242C94.4616 14.1665 93.9405 13.7154 93.5361 13.171C93.1472 12.6111 92.9528 11.9112 92.9528 11.0713C92.9528 9.76469 93.4039 8.75369 94.306 8.03821C95.2237 7.30717 96.4758 6.94165 98.0623 6.94165C99.7888 6.94165 101.15 7.34606 102.145 8.15486C103.141 8.96366 103.638 10.0369 103.638 11.3746V11.8878C103.638 12.0434 103.561 12.1211 103.405 12.1211H102.239C102.083 12.1211 102.005 12.0434 102.005 11.8878V11.4679C102.005 10.5657 101.648 9.82691 100.932 9.25141C100.232 8.67592 99.2522 8.38817 97.9923 8.38817C96.888 8.38817 96.0403 8.6137 95.4492 9.06476C94.8582 9.51583 94.5627 10.1691 94.5627 11.0246C94.5627 11.5845 94.7026 12.0512 94.9826 12.4244C95.2781 12.7822 95.6903 13.101 96.2192 13.381C96.7635 13.6454 97.5957 13.9954 98.7156 14.4309C99.851 14.8975 100.761 15.333 101.445 15.7374C102.145 16.1418 102.705 16.6396 103.125 17.2306C103.561 17.8061 103.778 18.5138 103.778 19.3537C103.778 20.6603 103.296 21.7024 102.332 22.4801C101.368 23.2578 100.03 23.6466 98.3189 23.6466ZM112.271 23.6466C111.166 23.6466 110.194 23.4211 109.354 22.97C108.514 22.5189 107.861 21.889 107.394 21.0802C106.943 20.2559 106.718 19.3071 106.718 18.2338V12.3545C106.718 11.2812 106.943 10.3402 107.394 9.53138C107.861 8.70702 108.514 8.06931 109.354 7.61825C110.194 7.16719 111.166 6.94165 112.271 6.94165C113.375 6.94165 114.347 7.16719 115.187 7.61825C116.042 8.06931 116.696 8.70702 117.147 9.53138C117.613 10.3402 117.847 11.2812 117.847 12.3545V18.2338C117.847 19.3071 117.613 20.2559 117.147 21.0802C116.696 21.889 116.042 22.5189 115.187 22.97C114.347 23.4211 113.375 23.6466 112.271 23.6466ZM112.271 22.2234C113.453 22.2234 114.401 21.8657 115.117 21.1502C115.832 20.4347 116.19 19.4859 116.19 18.3038V12.3311C116.19 11.149 115.832 10.2002 115.117 9.48472C114.401 8.75369 113.453 8.38817 112.271 8.38817C111.104 8.38817 110.163 8.75369 109.448 9.48472C108.732 10.2002 108.374 11.149 108.374 12.3311V18.3038C108.374 19.4859 108.732 20.4347 109.448 21.1502C110.163 21.8657 111.104 22.2234 112.271 22.2234ZM126.714 23.6699C125.625 23.6699 124.669 23.46 123.844 23.04C123.02 22.6045 122.374 21.9979 121.908 21.2202C121.457 20.4269 121.231 19.517 121.231 18.4905V12.0745C121.231 11.0635 121.457 10.1691 121.908 9.3914C122.374 8.6137 123.02 8.01487 123.844 7.59492C124.669 7.15941 125.625 6.94165 126.714 6.94165C127.803 6.94165 128.759 7.15163 129.584 7.57159C130.408 7.99154 131.046 8.58259 131.497 9.34474C131.963 10.1069 132.197 10.9857 132.197 11.9812C132.197 12.0589 132.173 12.1211 132.127 12.1678C132.08 12.2145 132.026 12.2378 131.963 12.2378L130.774 12.3078C130.618 12.3078 130.54 12.2378 130.54 12.0978V12.0278C130.54 10.9235 130.19 10.0447 129.49 9.3914C128.79 8.72258 127.865 8.38817 126.714 8.38817C125.563 8.38817 124.638 8.72258 123.938 9.3914C123.238 10.0602 122.888 10.939 122.888 12.0278V18.5605C122.888 19.6492 123.238 20.528 123.938 21.1969C124.638 21.8657 125.563 22.2001 126.714 22.2001C127.865 22.2001 128.79 21.8735 129.49 21.2202C130.19 20.5514 130.54 19.6648 130.54 18.5605V18.5138C130.54 18.3738 130.618 18.3038 130.774 18.3038L131.963 18.3738C132.119 18.3738 132.197 18.4438 132.197 18.5838C132.197 19.5948 131.963 20.4892 131.497 21.2669C131.046 22.029 130.408 22.62 129.584 23.04C128.759 23.46 127.803 23.6699 126.714 23.6699ZM136.15 23.46C135.994 23.46 135.916 23.3822 135.916 23.2267V7.36161C135.916 7.20607 135.994 7.1283 136.15 7.1283H137.339C137.495 7.1283 137.573 7.20607 137.573 7.36161V23.2267C137.573 23.3822 137.495 23.46 137.339 23.46H136.15ZM151.636 23.46C151.496 23.46 151.403 23.3977 151.356 23.2733L150.423 20.3336C150.408 20.287 150.376 20.2636 150.33 20.2636H143.354C143.307 20.2636 143.276 20.287 143.261 20.3336L142.327 23.2733C142.281 23.3977 142.187 23.46 142.047 23.46H140.787C140.616 23.46 140.554 23.3744 140.601 23.2033L145.757 7.31495C145.804 7.19052 145.897 7.1283 146.037 7.1283H147.623C147.763 7.1283 147.857 7.19052 147.903 7.31495L153.083 23.2033L153.106 23.2966C153.106 23.4055 153.036 23.46 152.896 23.46H151.636ZM143.727 18.7938C143.712 18.8249 143.712 18.856 143.727 18.8871C143.758 18.9027 143.789 18.9104 143.82 18.9104H149.84C149.871 18.9104 149.894 18.9027 149.91 18.8871C149.941 18.856 149.949 18.8249 149.933 18.7938L146.9 9.27474C146.885 9.24364 146.861 9.22808 146.83 9.22808C146.799 9.22808 146.776 9.24364 146.76 9.27474L143.727 18.7938ZM156.359 23.46C156.203 23.46 156.126 23.3822 156.126 23.2267V7.36161C156.126 7.20607 156.203 7.1283 156.359 7.1283H157.549C157.704 7.1283 157.782 7.20607 157.782 7.36161V21.9201C157.782 21.9823 157.813 22.0134 157.876 22.0134H166.111C166.267 22.0134 166.345 22.0912 166.345 22.2468V23.2267C166.345 23.3822 166.267 23.46 166.111 23.46H156.359Z" fill="#3F3F3F"/>
<path d="M109.31 30.5898H113.26C113.37 30.5898 113.47 30.6298 113.55 30.7098C113.63 30.7898 113.67 30.8798 113.67 30.9998V53.8198C113.67 53.9298 113.63 54.0298 113.55 54.1098C113.47 54.1898 113.38 54.2298 113.26 54.2298H109.31C109.2 54.2298 109.1 54.1898 109.02 54.1098C108.94 54.0298 108.9 53.9398 108.9 53.8198V38.9298C108.9 38.8398 108.88 38.7998 108.83 38.7998C108.78 38.7998 108.74 38.8298 108.7 38.8998L105.12 44.4998C105.01 44.6798 104.85 44.7698 104.65 44.7698H102.66C102.46 44.7698 102.3 44.6798 102.19 44.4998L98.6099 38.8998C98.5599 38.8298 98.5199 38.7998 98.4699 38.8098C98.4199 38.8198 98.3999 38.8698 98.3999 38.9598V53.8198C98.3999 53.9298 98.3599 54.0298 98.2799 54.1098C98.1999 54.1898 98.0999 54.2298 97.9899 54.2298H94.0399C93.9299 54.2298 93.8299 54.1898 93.7499 54.1098C93.6699 54.0298 93.6299 53.9398 93.6299 53.8198V30.9998C93.6299 30.8898 93.6699 30.7898 93.7499 30.7098C93.8299 30.6298 93.9199 30.5898 94.0399 30.5898H97.9899C98.1899 30.5898 98.3499 30.6798 98.4599 30.8598L103.53 38.7298C103.6 38.8598 103.66 38.8598 103.73 38.7298L108.83 30.8598C108.95 30.6798 109.1 30.5898 109.31 30.5898Z" fill="#00C1E5"/>
<path d="M117.9 54.1C117.82 54.02 117.78 53.9301 117.78 53.8101V30.9901C117.78 30.8801 117.82 30.7801 117.9 30.7001C117.98 30.6201 118.07 30.5801 118.19 30.5801H122.14C122.25 30.5801 122.35 30.6201 122.43 30.7001C122.51 30.7801 122.55 30.8701 122.55 30.9901V53.8101C122.55 53.9201 122.51 54.02 122.43 54.1C122.35 54.18 122.25 54.22 122.14 54.22H118.19C118.07 54.22 117.98 54.18 117.9 54.1Z" fill="#00C1E5"/>
<path d="M140.349 30.7001C140.429 30.6201 140.519 30.5801 140.639 30.5801H144.589C144.699 30.5801 144.799 30.6201 144.879 30.7001C144.959 30.7801 144.999 30.8701 144.999 30.9901V53.8101C144.999 53.9201 144.959 54.02 144.879 54.1C144.799 54.18 144.699 54.22 144.589 54.22H140.769C140.549 54.22 140.389 54.1301 140.299 53.9501L131.549 39.5001C131.509 39.4301 131.459 39.4 131.419 39.42C131.369 39.43 131.349 39.4801 131.349 39.5701L131.419 53.8201C131.419 53.9301 131.379 54.03 131.299 54.11C131.219 54.19 131.119 54.23 131.009 54.23H127.059C126.949 54.23 126.849 54.19 126.769 54.11C126.689 54.03 126.649 53.9401 126.649 53.8201V31.0001C126.649 30.8901 126.689 30.7901 126.769 30.7101C126.849 30.6301 126.939 30.5901 127.059 30.5901H130.879C131.099 30.5901 131.259 30.68 131.349 30.86L140.059 45.2401C140.099 45.3101 140.149 45.3401 140.189 45.3301C140.229 45.3201 140.259 45.2701 140.259 45.1801L140.229 31.0001C140.229 30.8801 140.269 30.7801 140.349 30.7001Z" fill="#00C1E5"/>
<path d="M149.03 54.1C148.95 54.02 148.91 53.9301 148.91 53.8101V30.9901C148.91 30.8801 148.95 30.7801 149.03 30.7001C149.11 30.6201 149.2 30.5801 149.32 30.5801H157.76C159.45 30.5801 160.93 30.88 162.2 31.47C163.47 32.07 164.46 32.9001 165.15 33.9901C165.85 35.0701 166.2 36.3201 166.2 37.7401V47.0601C166.2 48.4801 165.85 49.7301 165.15 50.8101C164.45 51.8901 163.47 52.7301 162.2 53.3201C160.93 53.9201 159.45 54.22 157.76 54.22H149.32C149.2 54.22 149.11 54.18 149.03 54.1ZM153.84 50.1401H157.93C158.96 50.1401 159.8 49.7901 160.45 49.0901C161.09 48.3901 161.42 47.46 161.45 46.29V38.5201C161.45 37.3501 161.13 36.42 160.49 35.72C159.85 35.02 158.99 34.67 157.91 34.67H153.86C153.75 34.67 153.69 34.7301 153.69 34.8401V49.97C153.67 50.08 153.73 50.1401 153.84 50.1401Z" fill="#00C1E5"/>
<defs>
<linearGradient id="paint0_linear_12_2128" x1="42.1554" y1="37.6368" x2="103.478" y2="15.9133" gradientUnits="userSpaceOnUse">
<stop stop-color="#003BCE"/>
<stop offset="1" stop-color="#00FFF0"/>
</linearGradient>
<linearGradient id="paint1_linear_12_2128" x1="0.557817" y1="28.3841" x2="54.6394" y2="28.3841" gradientUnits="userSpaceOnUse">
<stop stop-color="#003BCE"/>
<stop offset="1" stop-color="#00FFF0"/>
</linearGradient>
</defs>
</svg>
