<svg width="21" height="24" viewBox="0 0 21 24" fill="none" xmlns="http://www.w3.org/2000/svg">
<path d="M15.6078 13.3138C14.3007 12.2398 12.528 11.6364 10.6795 11.6364C8.83101 11.6364 7.05824 12.2398 5.75116 13.3138C2.5471 15.9467 4.25711 19.1627 5.20329 22.2727H16.1557C17.1019 19.1627 18.8119 15.9467 15.6078 13.3138Z" fill="white"/>
<path d="M17.8249 19.4713C17.8249 21.2241 14.9606 22.2728 10.9025 22.2728C6.8444 22.2728 3.9801 21.2241 3.9801 19.4713C3.9801 17.7184 10.9025 15.925 10.9025 15.925C10.9025 15.925 17.8249 17.7184 17.8249 19.4713Z" fill="#ECECEC"/>
<path d="M15.6078 13.3138C14.3007 12.2398 12.528 11.6364 10.6795 11.6364C8.83101 11.6364 7.05824 12.2398 5.75116 13.3138C2.5471 15.9467 4.25711 19.1627 5.20329 22.2727H16.1557C17.1019 19.1627 18.8119 15.9467 15.6078 13.3138Z" stroke="#A0A0A0" stroke-width="1.5" stroke-linecap="round" stroke-linejoin="round"/>
<path d="M15.6078 9.95887C14.3007 11.0329 12.528 11.6364 10.6795 11.6364C8.83101 11.6364 7.05824 11.0329 5.75116 9.95887C2.5471 7.32597 4.25711 4.11002 5.20329 0.99999H16.1557C17.1019 4.11002 18.8119 7.32597 15.6078 9.95887Z" fill="white" stroke="#A0A0A0" stroke-width="1.5" stroke-linecap="round" stroke-linejoin="round"/>
<path d="M1.72925 1H19.6298" stroke="#A0A0A0" stroke-width="1.5" stroke-linecap="round" stroke-linejoin="round"/>
<path d="M1.72925 22.2727H19.6298" stroke="#A0A0A0" stroke-width="1.5" stroke-linecap="round" stroke-linejoin="round"/>
</svg>
